<svg width="32" height="32" viewBox="0 0 32 32" xmlns="http://www.w3.org/2000/svg">
  <rect width="32" height="32" rx="8" fill="#050816"/>
  <g>
    <circle cx="16" cy="16" r="6.5" fill="#00e5ff"/>
    <g fill="#00e5ff">
      <rect x="15" y="2" width="2" height="4" rx="1"/>
      <rect x="15" y="2" width="2" height="4" rx="1" transform="rotate(45 16 16)"/>
      <rect x="15" y="2" width="2" height="4" rx="1" transform="rotate(90 16 16)"/>
      <rect x="15" y="2" width="2" height="4" rx="1" transform="rotate(135 16 16)"/>
      <rect x="15" y="2" width="2" height="4" rx="1" transform="rotate(180 16 16)"/>
      <rect x="15" y="2" width="2" height="4" rx="1" transform="rotate(225 16 16)"/>
      <rect x="15" y="2" width="2" height="4" rx="1" transform="rotate(270 16 16)"/>
      <rect x="15" y="2" width="2" height="4" rx="1" transform="rotate(315 16 16)"/>
    </g>
  </g>
</svg>
